<?xml version="1.0" standalone="no"?>
<!DOCTYPE svg PUBLIC "-//W3C//DTD SVG 20010904//EN"
 "http://www.w3.org/TR/2001/REC-SVG-20010904/DTD/svg10.dtd">
<svg version="1.0" xmlns="http://www.w3.org/2000/svg"
 width="2000.000000pt" height="2000.000000pt" viewBox="0 0 2000.000000 2000.000000"
 preserveAspectRatio="xMidYMid meet">
<metadata>
Created by potrace 1.11, written by Peter Selinger 2001-2013
</metadata>
<g transform="translate(0.000000,2000.000000) scale(0.100000,-0.100000)"
fill="#000000" stroke="none">
<path d="M5405 19043 c-813 -31 -1665 -277 -2375 -684 -413 -236 -746 -493
-1100 -848 -417 -418 -715 -831 -976 -1352 -291 -582 -463 -1186 -530 -1869
-21 -211 -24 -734 -5 -995 129 -1824 822 -3306 2280 -4875 542 -583 1100
-1105 2396 -2240 1140 -999 1686 -1500 2280 -2095 954 -955 1611 -1736 2320
-2755 109 -157 219 -315 245 -352 l47 -68 218 328 c264 396 379 561 588 841
811 1091 1737 2079 3152 3366 121 110 542 486 935 836 1139 1013 1414 1264
1878 1724 1228 1213 1941 2214 2387 3350 392 998 542 2195 399 3192 -183 1287
-832 2448 -1836 3285 -1120 935 -2558 1356 -4008 1172 -1458 -184 -2763 -963
-3615 -2157 -47 -66 -90 -127 -95 -136 -9 -14 -11 -14 -19 0 -6 8 -49 71 -97
140 -675 962 -1669 1671 -2799 1994 -541 155 -1090 220 -1670 198z m730 -827
c549 -68 1002 -204 1480 -443 661 -332 1246 -851 1662 -1473 167 -251 274
-457 564 -1087 74 -161 136 -293 139 -293 3 1 77 157 165 348 211 461 346 727
452 897 608 969 1571 1667 2682 1944 637 159 1313 175 1957 46 1133 -227 2153
-910 2802 -1876 434 -645 683 -1367 743 -2149 15 -193 6 -693 -15 -910 -126
-1260 -591 -2336 -1499 -3470 -290 -361 -531 -625 -1001 -1096 -531 -531 -730
-714 -1911 -1763 -368 -328 -767 -683 -885 -790 -1565 -1418 -2561 -2492
-3476 -3746 l-20 -29 -129 170 c-831 1095 -1810 2132 -3174 3362 -289 261
-467 419 -1246 1102 -835 733 -1217 1083 -1644 1505 -948 938 -1510 1669
-1926 2510 -381 769 -579 1520 -635 2410 -13 205 -13 605 0 771 71 903 400
1736 968 2446 125 156 390 430 547 566 715 617 1578 978 2540 1062 157 13 709
4 860 -14z"/>
</g>
</svg>
